REM DIRINDEX 1\2,1\3,1\4,1\5
REM DIRNAME folder01,folder02,folder03,folder04,folder05
TITLE ""
FILE "CD1Track10.mp3" MP3
  TRACK 01 AUDIO
    TITLE "5:cjc155_1035"
    INDEX 01 00:00:00
  TRACK 02 AUDIO
    TITLE "0:"
    INDEX 01 00:01:36
  TRACK 03 AUDIO
    TITLE "2:cjc155_1036"
    INDEX 01 00:02:51
  TRACK 04 AUDIO
    TITLE "3:cjc155_1037"
    INDEX 01 00:04:58
  TRACK 05 AUDIO
    TITLE "2:cjc155_1038"
    INDEX 01 00:07:00
  TRACK 06 AUDIO
    TITLE "3:cjc155_1039"
    INDEX 01 00:08:01
  TRACK 07 AUDIO
    TITLE "2:cjc155_1040"
    INDEX 01 00:09:10
  TRACK 08 AUDIO
    TITLE "3:cjc155_1041"
    INDEX 01 00:11:27
  TRACK 09 AUDIO
    TITLE "2:cjc155_1042"
    INDEX 01 00:13:49
  TRACK 10 AUDIO
    TITLE "3:cjc155_1043"
    INDEX 01 00:14:62
  TRACK 11 AUDIO
    TITLE "2:cjc155_1044"
    INDEX 01 00:16:06
  TRACK 12 AUDIO
    TITLE "3:cjc155_1045"
    INDEX 01 00:18:07
  TRACK 13 AUDIO
    TITLE "2:cjc155_1046"
    INDEX 01 00:20:14
  TRACK 14 AUDIO
    TITLE "3:cjc155_1047"
    INDEX 01 00:21:51
  TRACK 15 AUDIO
    TITLE "2:cjc155_1048"
    INDEX 01 00:23:16
  TRACK 16 AUDIO
    TITLE "3:cjc155_1049"
    INDEX 01 00:24:69
  TRACK 17 AUDIO
    TITLE "2:cjc155_1050"
    INDEX 01 00:26:50
  TRACK 18 AUDIO
    TITLE "3:cjc155_1051"
    INDEX 01 00:28:53
  TRACK 19 AUDIO
    TITLE "2:cjc155_1052"
    INDEX 01 00:30:61
  TRACK 20 AUDIO
    TITLE "3:cjc155_1053"
    INDEX 01 00:32:74
  TRACK 21 AUDIO
    TITLE "2:cjc155_1054"
    INDEX 01 00:35:15
  TRACK 22 AUDIO
    TITLE "3:cjc155_1055"
    INDEX 01 00:37:61
  TRACK 23 AUDIO
    TITLE "2:cjc155_1056"
    INDEX 01 00:40:40
  TRACK 24 AUDIO
    TITLE "3:cjc155_1057"
    INDEX 01 00:42:27
  TRACK 25 AUDIO
    TITLE "2:cjc155_1058"
    INDEX 01 00:44:24
  TRACK 26 AUDIO
    TITLE "3:cjc155_1059"
    INDEX 01 00:46:62
  TRACK 27 AUDIO
    TITLE "2:cjc155_1060"
    INDEX 01 00:49:45
  TRACK 28 AUDIO
    TITLE "3:cjc155_1061"
    INDEX 01 00:51:22
  TRACK 29 AUDIO
    TITLE "2:cjc155_1062"
    INDEX 01 00:53:08
  TRACK 30 AUDIO
    TITLE "3:cjc155_1063"
    INDEX 01 00:55:53
  TRACK 31 AUDIO
    TITLE "2:cjc155_1064"
    INDEX 01 00:58:32
  TRACK 32 AUDIO
    TITLE "3:cjc155_1065"
    INDEX 01 00:59:49
  TRACK 33 AUDIO
    TITLE "2:cjc155_1066"
    INDEX 01 01:00:74
  TRACK 34 AUDIO
    TITLE "3:cjc155_1067"
    INDEX 01 01:03:06
  TRACK 35 AUDIO
    TITLE "2:cjc155_1068"
    INDEX 01 01:05:24
  TRACK 36 AUDIO
    TITLE "3:cjc155_1069"
    INDEX 01 01:06:73
  TRACK 37 AUDIO
    TITLE "2:cjc155_1070"
    INDEX 01 01:08:60
  TRACK 38 AUDIO
    TITLE "3:cjc155_1071"
    INDEX 01 01:10:73
  TRACK 39 AUDIO
    TITLE "2:cjc155_1072"
    INDEX 01 01:13:12
  TRACK 40 AUDIO
    TITLE "3:cjc155_1073"
    INDEX 01 01:15:40
  TRACK 41 AUDIO
    TITLE "2:cjc155_1074"
    INDEX 01 01:17:69
  TRACK 42 AUDIO
    TITLE "3:cjc155_1075"
    INDEX 01 01:19:42
  TRACK 43 AUDIO
    TITLE "2:cjc155_1076"
    INDEX 01 01:21:23
  TRACK 44 AUDIO
    TITLE "3:cjc155_1077"
    INDEX 01 01:23:07
  TRACK 45 AUDIO
    TITLE "2:cjc155_1078"
    INDEX 01 01:24:73
  TRACK 46 AUDIO
    TITLE "3:cjc155_1079"
    INDEX 01 01:26:11
  TRACK 47 AUDIO
    TITLE "2:cjc155_1080"
    INDEX 01 01:27:34
  TRACK 48 AUDIO
    TITLE "3:cjc155_1081"
    INDEX 01 01:29:17
  TRACK 49 AUDIO
    TITLE "2:cjc155_1082"
    INDEX 01 01:31:12
  TRACK 50 AUDIO
    TITLE "3:cjc155_1083"
    INDEX 01 01:34:46
  TRACK 51 AUDIO
    TITLE "2:cjc155_1084"
    INDEX 01 01:38:14
  TRACK 52 AUDIO
    TITLE "3:cjc155_1085"
    INDEX 01 01:40:03
  TRACK 53 AUDIO
    TITLE "2:cjc155_1086"
    INDEX 01 01:41:71
  TRACK 54 AUDIO
    TITLE "3:cjc155_1087"
    INDEX 01 01:43:19
  TRACK 55 AUDIO
    TITLE "2:cjc155_1088"
    INDEX 01 01:44:48
  TRACK 56 AUDIO
    TITLE "3:cjc155_1089"
    INDEX 01 01:46:27
  TRACK 57 AUDIO
    TITLE "2:cjc155_1090"
    INDEX 01 01:48:22
  TRACK 58 AUDIO
    TITLE "3:cjc155_1091"
    INDEX 01 01:49:57
  TRACK 59 AUDIO
    TITLE "2:cjc155_1092"
    INDEX 01 01:51:30
  TRACK 60 AUDIO
    TITLE "3:cjc155_1093"
    INDEX 01 01:54:62
  TRACK 61 AUDIO
    TITLE "2:cjc155_1094"
    INDEX 01 01:58:29
  TRACK 62 AUDIO
    TITLE "3:cjc155_1095"
    INDEX 01 02:00:06
  TRACK 63 AUDIO
    TITLE "2:cjc155_1096"
    INDEX 01 02:01:64
  TRACK 64 AUDIO
    TITLE "3:cjc155_1097"
    INDEX 01 02:03:26
  TRACK 65 AUDIO
    TITLE "2:cjc155_1098"
    INDEX 01 02:04:72
  TRACK 66 AUDIO
    TITLE "3:cjc155_1099"
    INDEX 01 02:06:20
  TRACK 67 AUDIO
    TITLE "2:cjc155_1100"
    INDEX 01 02:07:51
  TRACK 68 AUDIO
    TITLE "3:cjc155_1101"
    INDEX 01 02:08:66
  TRACK 69 AUDIO
    TITLE "2:cjc155_1102"
    INDEX 01 02:10:12
  TRACK 70 AUDIO
    TITLE "3:cjc155_1103"
    INDEX 01 02:11:74
  TRACK 71 AUDIO
    TITLE "2:cjc155_1104"
    INDEX 01 02:13:63
  TRACK 72 AUDIO
    TITLE "3:cjc155_1105"
    INDEX 01 02:16:11
  TRACK 73 AUDIO
    TITLE "2:cjc155_1106"
    INDEX 01 02:18:43
  TRACK 74 AUDIO
    TITLE "3:cjc155_1107"
    INDEX 01 02:19:66
  TRACK 75 AUDIO
    TITLE "2:cjc155_1108"
    INDEX 01 02:21:26
  TRACK 76 AUDIO
    TITLE "3:cjc155_1109"
    INDEX 01 02:23:07
  TRACK 77 AUDIO
    TITLE "2:cjc155_1110"
    INDEX 01 02:24:71
  TRACK 78 AUDIO
    TITLE "3:cjc155_1111"
    INDEX 01 02:26:29
  TRACK 79 AUDIO
    TITLE "2:cjc155_1112"
    INDEX 01 02:27:73
  TRACK 80 AUDIO
    TITLE "3:cjc155_1113"
    INDEX 01 02:29:27
  TRACK 81 AUDIO
    TITLE "2:cjc155_1114"
    INDEX 01 02:30:64
  TRACK 82 AUDIO
    TITLE "3:cjc155_1115"
    INDEX 01 02:33:11
  TRACK 83 AUDIO
    TITLE "2:cjc155_1116"
    INDEX 01 02:35:43
  TRACK 84 AUDIO
    TITLE "3:cjc155_1117"
    INDEX 01 02:37:36
  TRACK 85 AUDIO
    TITLE "2:cjc155_1118"
    INDEX 01 02:39:39
  TRACK 86 AUDIO
    TITLE "3:cjc155_1119"
    INDEX 01 02:41:03
  TRACK 87 AUDIO
    TITLE "2:cjc155_1120"
    INDEX 01 02:42:51
  TRACK 88 AUDIO
    TITLE "3:cjc155_1121"
    INDEX 01 02:44:48
  TRACK 89 AUDIO
    TITLE "2:cjc155_1122"
    INDEX 01 02:46:55
  TRACK 90 AUDIO
    TITLE "3:cjc155_1123"
    INDEX 01 02:47:56
  TRACK 91 AUDIO
    TITLE "2:cjc155_1124"
    INDEX 01 02:48:72
  TRACK 92 AUDIO
    TITLE "3:cjc155_1125"
    INDEX 01 02:50:59
  TRACK 93 AUDIO
    TITLE "2:cjc155_1126"
    INDEX 01 02:52:56
  TRACK 94 AUDIO
    TITLE "3:cjc155_1127"
    INDEX 01 02:54:43
  TRACK 95 AUDIO
    TITLE "2:cjc155_1128"
    INDEX 01 02:56:44
  TRACK 96 AUDIO
    TITLE "3:cjc155_1129"
    INDEX 01 02:58:39
  TRACK 97 AUDIO
    TITLE "2:cjc155_1130"
    INDEX 01 03:00:41
  TRACK 98 AUDIO
    TITLE "3:cjc155_1131"
    INDEX 01 03:01:57
  TRACK 99 AUDIO
    TITLE "2:cjc155_1132"
    INDEX 01 03:03:10
  TRACK 100 AUDIO
    TITLE "3:cjc155_1133"
    INDEX 01 03:05:21
  TRACK 101 AUDIO
    TITLE "2:cjc155_1134"
    INDEX 01 03:07:41
  TRACK 102 AUDIO
    TITLE "3:cjc155_1135"
    INDEX 01 03:09:29
  TRACK 103 AUDIO
    TITLE "2:cjc155_1136"
    INDEX 01 03:11:35
  TRACK 104 AUDIO
    TITLE "3:cjc155_1137"
    INDEX 01 03:13:19
  TRACK 105 AUDIO
    TITLE "2:cjc155_1138"
    INDEX 01 03:15:04
  TRACK 106 AUDIO
    TITLE "3:cjc155_1139"
    INDEX 01 03:16:23
  TRACK 107 AUDIO
    TITLE "2:cjc155_1140"
    INDEX 01 03:17:46
  TRACK 108 AUDIO
    TITLE "3:cjc155_1141"
    INDEX 01 03:19:02
  TRACK 109 AUDIO
    TITLE "2:cjc155_1142"
    INDEX 01 03:20:40
  TRACK 110 AUDIO
    TITLE "3:cjc155_1143"
    INDEX 01 03:22:33
  TRACK 111 AUDIO
    TITLE "2:cjc155_1144"
    INDEX 01 03:24:30
  TRACK 112 AUDIO
    TITLE "3:cjc155_1145"
    INDEX 01 03:26:15
  TRACK 113 AUDIO
    TITLE "2:cjc155_1146"
    INDEX 01 03:28:14
  TRACK 114 AUDIO
    TITLE "3:cjc155_1147"
    INDEX 01 03:29:57
  TRACK 115 AUDIO
    TITLE "2:cjc155_1148"
    INDEX 01 03:31:28
  TRACK 116 AUDIO
    TITLE "3:cjc155_1149"
    INDEX 01 03:32:49
  TRACK 117 AUDIO
    TITLE "2:cjc155_1150"
    INDEX 01 03:33:72
  TRACK 118 AUDIO
    TITLE "3:cjc155_1151"
    INDEX 01 03:36:39
  TRACK 119 AUDIO
    TITLE "2:cjc155_1152"
    INDEX 01 03:39:16
  TRACK 120 AUDIO
    TITLE "3:cjc155_1153"
    INDEX 01 03:41:19
  TRACK 121 AUDIO
    TITLE "2:cjc155_1154"
    INDEX 01 03:43:31
  TRACK 122 AUDIO
    TITLE "3:cjc155_1155"
    INDEX 01 03:44:35
  TRACK 123 AUDIO
    TITLE "2:cjc155_1156"
    INDEX 01 03:45:48
  TRACK 124 AUDIO
    TITLE "3:cjc155_1157"
    INDEX 01 03:46:69
  TRACK 125 AUDIO
    TITLE "2:cjc155_1158"
    INDEX 01 03:48:21
  TRACK 126 AUDIO
    TITLE "3:cjc155_1159"
    INDEX 01 03:50:06
  TRACK 127 AUDIO
    TITLE "2:cjc155_1160"
    INDEX 01 03:51:66
  TRACK 128 AUDIO
    TITLE "3:cjc155_1161"
    INDEX 01 03:53:59
  TRACK 129 AUDIO
    TITLE "2:cjc155_1162"
    INDEX 01 03:55:56
  TRACK 130 AUDIO
    TITLE "3:cjc155_1163"
    INDEX 01 03:57:51
  TRACK 131 AUDIO
    TITLE "2:cjc155_1164"
    INDEX 01 03:59:56
  TRACK 132 AUDIO
    TITLE "3:cjc155_1165"
    INDEX 01 04:01:18
  TRACK 133 AUDIO
    TITLE "2:cjc155_1166"
    INDEX 01 04:02:56
  TRACK 134 AUDIO
    TITLE "3:cjc155_1167"
    INDEX 01 04:04:16
  TRACK 135 AUDIO
    TITLE "2:cjc155_1168"
    INDEX 01 04:05:57
  TRACK 136 AUDIO
    TITLE "3:cjc155_1169"
    INDEX 01 04:07:08
  TRACK 137 AUDIO
    TITLE "2:cjc155_1170"
    INDEX 01 04:08:41
  TRACK 138 AUDIO
    TITLE "3:cjc155_1171"
    INDEX 01 04:10:30
  TRACK 139 AUDIO
    TITLE "2:cjc155_1172"
    INDEX 01 04:12:21
  TRACK 140 AUDIO
    TITLE "3:cjc155_1173"
    INDEX 01 04:13:48
  TRACK 141 AUDIO
    TITLE "2:cjc155_1174"
    INDEX 01 04:15:04
  TRACK 142 AUDIO
    TITLE "3:cjc155_1175"
    INDEX 01 04:16:56
  TRACK 143 AUDIO
    TITLE "2:cjc155_1176"
    INDEX 01 04:18:42
  TRACK 144 AUDIO
    TITLE "3:cjc155_1177"
    INDEX 01 04:20:58
  TRACK 145 AUDIO
    TITLE "2:cjc155_1178"
    INDEX 01 04:23:02
  TRACK 146 AUDIO
    TITLE "3:cjc155_1179"
    INDEX 01 04:24:42
  TRACK 147 AUDIO
    TITLE "2:cjc155_1180"
    INDEX 01 04:26:19
  TRACK 148 AUDIO
    TITLE "3:cjc155_1181"
    INDEX 01 04:28:20
  TRACK 149 AUDIO
    TITLE "2:cjc155_1182"
    INDEX 01 04:30:31
  TRACK 150 AUDIO
    TITLE "3:cjc155_1183"
    INDEX 01 04:32:26
  TRACK 151 AUDIO
    TITLE "2:cjc155_1184"
    INDEX 01 04:34:37
  TRACK 152 AUDIO
    TITLE "3:cjc155_1185"
    INDEX 01 04:36:02
  TRACK 153 AUDIO
    TITLE "2:cjc155_1186"
    INDEX 01 04:37:55
  TRACK 154 AUDIO
    TITLE "3:cjc155_1187"
    INDEX 01 04:39:50
  TRACK 155 AUDIO
    TITLE "2:cjc155_1188"
    INDEX 01 04:41:54
  TRACK 156 AUDIO
    TITLE "3:cjc155_1189"
    INDEX 01 04:43:32
  TRACK 157 AUDIO
    TITLE "2:cjc155_1190"
    INDEX 01 04:45:13
  TRACK 158 AUDIO
    TITLE "3:cjc155_1191"
    INDEX 01 04:46:61
  TRACK 159 AUDIO
    TITLE "2:cjc155_1192"
    INDEX 01 04:48:47
  TRACK 160 AUDIO
    TITLE "3:cjc155_1193"
    INDEX 01 04:50:42
  TRACK 161 AUDIO
    TITLE "2:cjc155_1194"
    INDEX 01 04:52:42
  TRACK 162 AUDIO
    TITLE "3:cjc155_1195"
    INDEX 01 04:53:57
  TRACK 163 AUDIO
    TITLE "2:cjc155_1196"
    INDEX 01 04:55:11
  TRACK 164 AUDIO
    TITLE "3:cjc155_1197"
    INDEX 01 04:56:46
  TRACK 165 AUDIO
    TITLE "2:cjc155_1198"
    INDEX 01 04:58:14
  TRACK 166 AUDIO
    TITLE "3:cjc155_1199"
    INDEX 01 05:00:05
  TRACK 167 AUDIO
    TITLE "2:cjc155_1200"
    INDEX 01 05:01:69
  TRACK 168 AUDIO
    TITLE "3:cjc155_1201"
    INDEX 01 05:04:06
  TRACK 169 AUDIO
    TITLE "2:cjc155_1202"
    INDEX 01 05:06:29
  TRACK 170 AUDIO
    TITLE "3:cjc155_1203"
    INDEX 01 05:08:18
  TRACK 171 AUDIO
    TITLE "2:cjc155_1204"
    INDEX 01 05:10:05
  TRACK 172 AUDIO
    TITLE "3:cjc155_1205"
    INDEX 01 05:11:69
  TRACK 173 AUDIO
    TITLE "2:cjc155_1206"
    INDEX 01 05:13:66
  TRACK 174 AUDIO
    TITLE "3:cjc155_1207"
    INDEX 01 05:15:20
  TRACK 175 AUDIO
    TITLE "2:cjc155_1208"
    INDEX 01 05:16:59
  TRACK 176 AUDIO
    TITLE "3:cjc155_1209"
    INDEX 01 05:18:54
  TRACK 177 AUDIO
    TITLE "2:cjc155_1210"
    INDEX 01 05:20:60
  TRACK 178 AUDIO
    TITLE "3:cjc155_1211"
    INDEX 01 05:22:08
  TRACK 179 AUDIO
    TITLE "2:cjc155_1212"
    INDEX 01 05:23:37
  TRACK 180 AUDIO
    TITLE "3:cjc155_1213"
    INDEX 01 05:26:16
  TRACK 181 AUDIO
    TITLE "2:cjc155_1214"
    INDEX 01 05:29:02
  TRACK 182 AUDIO
    TITLE "3:cjc155_1215"
    INDEX 01 05:30:23
  TRACK 183 AUDIO
    TITLE "2:cjc155_1216"
    INDEX 01 05:31:52
  TRACK 184 AUDIO
    TITLE "3:cjc155_1217"
    INDEX 01 05:33:00
  TRACK 185 AUDIO
    TITLE "2:cjc155_1218"
    INDEX 01 05:34:21
  TRACK 186 AUDIO
    TITLE "3:cjc155_1219"
    INDEX 01 05:35:50
  TRACK 187 AUDIO
    TITLE "2:cjc155_1220"
    INDEX 01 05:37:10
  TRACK 188 AUDIO
    TITLE "3:cjc155_1221"
    INDEX 01 05:38:17
  TRACK 189 AUDIO
    TITLE "2:cjc155_1222"
    INDEX 01 05:39:36
  TRACK 190 AUDIO
    TITLE "3:cjc155_1223"
    INDEX 01 05:41:17
  TRACK 191 AUDIO
    TITLE "2:cjc155_1224"
    INDEX 01 05:43:08
  TRACK 192 AUDIO
    TITLE "3:cjc155_1225"
    INDEX 01 05:44:55
  TRACK 193 AUDIO
    TITLE "2:cjc155_1226"
    INDEX 01 05:46:38
  TRACK 194 AUDIO
    TITLE "3:cjc155_1227"
    INDEX 01 05:48:04
  TRACK 195 AUDIO
    TITLE "2:cjc155_1228"
    INDEX 01 05:49:52
  TRACK 196 AUDIO
    TITLE "3:cjc155_1229"
    INDEX 01 05:51:00
  TRACK 197 AUDIO
    TITLE "2:cjc155_1230"
    INDEX 01 05:52:35
  TRACK 198 AUDIO
    TITLE "3:cjc155_1231"
    INDEX 01 05:53:32
  TRACK 199 AUDIO
    TITLE "2:cjc155_1232"
    INDEX 01 05:54:36
  TRACK 200 AUDIO
    TITLE "3:cjc155_1233"
    INDEX 01 05:55:74
  TRACK 201 AUDIO
    TITLE "2:cjc155_1234"
    INDEX 01 05:57:52
  TRACK 202 AUDIO
    TITLE "3:cjc155_1235"
    INDEX 01 05:59:17
  TRACK 203 AUDIO
    TITLE "2:cjc155_1236"
    INDEX 01 06:00:72
  TRACK 204 AUDIO
    TITLE "3:cjc155_1237"
    INDEX 01 06:02:51
  TRACK 205 AUDIO
    TITLE "2:cjc155_1238"
    INDEX 01 06:04:36
  TRACK 206 AUDIO
    TITLE "3:cjc155_1239"
    INDEX 01 06:06:64
  TRACK 207 AUDIO
    TITLE "2:cjc155_1240"
    INDEX 01 06:09:29
  TRACK 208 AUDIO
    TITLE "3:cjc155_1241"
    INDEX 01 06:11:50
  TRACK 209 AUDIO
    TITLE "2:cjc155_1242"
    INDEX 01 06:14:07
  TRACK 210 AUDIO
    TITLE "3:cjc155_1243"
    INDEX 01 06:15:18
  TRACK 211 AUDIO
    TITLE "2:cjc155_1244"
    INDEX 01 06:16:45
  TRACK 212 AUDIO
    TITLE "3:cjc155_1245"
    INDEX 01 06:18:44
  TRACK 213 AUDIO
    TITLE "2:cjc155_1246"
    INDEX 01 06:20:57
  TRACK 214 AUDIO
    TITLE "3:cjc155_1247"
    INDEX 01 06:21:64
  TRACK 215 AUDIO
    TITLE "2:cjc155_1248"
    INDEX 01 06:22:71
  TRACK 216 AUDIO
    TITLE "3:cjc155_1249"
    INDEX 01 06:24:66
  TRACK 217 AUDIO
    TITLE "2:cjc155_1250"
    INDEX 01 06:26:67
  TRACK 218 AUDIO
    TITLE "3:cjc155_1251"
    INDEX 01 06:28:21
  TRACK 219 AUDIO
    TITLE "2:cjc155_1252"
    INDEX 01 06:29:61
  TRACK 220 AUDIO
    TITLE "3:cjc155_1253"
    INDEX 01 06:31:05
  TRACK 221 AUDIO
    TITLE "0:"
    INDEX 01 06:32:24
